<?xml version="1.0" encoding="UTF-8" standalone="no"?>
<!DOCTYPE svg PUBLIC "-//W3C//DTD SVG 1.1//EN"
 "http://www.w3.org/Graphics/SVG/1.1/DTD/svg11.dtd">
<!-- Generated by graphviz version 2.38.0 (20140413.2041)
 -->
<!-- Title: %3 Pages: 1 -->
<svg width="538pt" height="127pt"
 viewBox="0.00 0.00 537.85 127.05" xmlns="http://www.w3.org/2000/svg" xmlns:xlink="http://www.w3.org/1999/xlink">
<g id="graph0" class="graph" transform="scale(1 1) rotate(0) translate(4 123.054)">
<title>%3</title>
<polygon fill="white" stroke="none" points="-4,4 -4,-123.054 533.849,-123.054 533.849,4 -4,4"/>
<!-- 1,1 -->
<g id="node1" class="node"><title>1,1</title>
<polygon fill="lightgray" stroke="black" points="84.8492,-119.054 56.8492,-119.054 56.8492,-101.054 84.8492,-101.054 84.8492,-119.054"/>
<text text-anchor="middle" x="70.8492" y="-107.854" font-family="Times,serif" font-size="9.00">1,1</text>
</g>
<!-- buzz -->
<g id="node12" class="node"><title>buzz</title>
<ellipse fill="lightblue" stroke="black" cx="70.8492" cy="-32.5269" rx="23.1702" ry="23.1702"/>
<text text-anchor="middle" x="70.8492" y="-30.3269" font-family="Times,serif" font-size="9.00">buzz</text>
</g>
<!-- 1,1&#45;&gt;buzz -->
<g id="edge5" class="edge"><title>1,1&#45;&gt;buzz</title>
<path fill="none" stroke="red" stroke-width="0.573367" d="M70.8492,-100.971C70.8492,-92.5635 70.8492,-78.8533 70.8492,-65.9824"/>
<polygon fill="red" stroke="red" stroke-width="0.573367" points="74.3493,-65.9574 70.8492,-55.9575 67.3493,-65.9575 74.3493,-65.9574"/>
</g>
<!-- 1,2 -->
<g id="node2" class="node"><title>1,2</title>
<polygon fill="lightgray" stroke="black" points="420.849,-119.054 392.849,-119.054 392.849,-101.054 420.849,-101.054 420.849,-119.054"/>
<text text-anchor="middle" x="406.849" y="-107.854" font-family="Times,serif" font-size="9.00">1,2</text>
</g>
<!-- fizz -->
<g id="node11" class="node"><title>fizz</title>
<ellipse fill="lightblue" stroke="black" cx="406.849" cy="-32.5269" rx="20.5122" ry="20.5122"/>
<text text-anchor="middle" x="406.849" y="-30.3269" font-family="Times,serif" font-size="9.00">fizz</text>
</g>
<!-- 1,2&#45;&gt;fizz -->
<g id="edge2" class="edge"><title>1,2&#45;&gt;fizz</title>
<path fill="none" stroke="red" stroke-width="1.72347" d="M406.849,-100.971C406.849,-91.9344 406.849,-76.7719 406.849,-63.1099"/>
<polygon fill="red" stroke="red" stroke-width="1.72347" points="410.349,-63.0813 406.849,-53.0813 403.349,-63.0814 410.349,-63.0813"/>
</g>
<!-- 1,3 -->
<g id="node3" class="node"><title>1,3</title>
<polygon fill="lightgray" stroke="black" points="231.849,-119.054 203.849,-119.054 203.849,-101.054 231.849,-101.054 231.849,-119.054"/>
<text text-anchor="middle" x="217.849" y="-107.854" font-family="Times,serif" font-size="9.00">1,3</text>
</g>
<!-- Number -->
<g id="node10" class="node"><title>Number</title>
<ellipse fill="lightblue" stroke="black" cx="144.849" cy="-32.5269" rx="32.5538" ry="32.5538"/>
<text text-anchor="middle" x="144.849" y="-30.3269" font-family="Times,serif" font-size="9.00">Number</text>
</g>
<!-- 1,3&#45;&gt;Number -->
<g id="edge7" class="edge"><title>1,3&#45;&gt;Number</title>
<path fill="none" stroke="green" stroke-width="0.92647" d="M210.037,-100.971C201.472,-92.1092 187.212,-77.3562 174.21,-63.9044"/>
<polygon fill="green" stroke="green" stroke-width="0.92647" points="176.627,-61.3686 167.161,-56.6107 171.594,-66.2335 176.627,-61.3686"/>
</g>
<!-- 4 -->
<g id="node14" class="node"><title>4</title>
<ellipse fill="lightblue" stroke="black" cx="353.849" cy="-32.5269" rx="14.7" ry="14.7"/>
<text text-anchor="middle" x="353.849" y="-30.3269" font-family="Times,serif" font-size="9.00">4</text>
</g>
<!-- 1,3&#45;&gt;4 -->
<g id="edge16" class="edge"><title>1,3&#45;&gt;4</title>
<path fill="none" stroke="green" stroke-width="0.120522" stroke-dasharray="1,5" d="M232.077,-103.953C260.369,-93.7392 321.683,-71.2263 329.849,-65.0538 333.89,-62 337.591,-58.095 340.814,-54.0811"/>
<polygon fill="green" stroke="green" stroke-width="0.120522" points="343.688,-56.0801 346.714,-45.9267 338.017,-51.9767 343.688,-56.0801"/>
</g>
<!-- 5 -->
<g id="node15" class="node"><title>5</title>
<ellipse fill="lightblue" stroke="black" cx="305.849" cy="-32.5269" rx="14.7" ry="14.7"/>
<text text-anchor="middle" x="305.849" y="-30.3269" font-family="Times,serif" font-size="9.00">5</text>
</g>
<!-- 1,3&#45;&gt;5 -->
<g id="edge8" class="edge"><title>1,3&#45;&gt;5</title>
<path fill="none" stroke="red" stroke-width="0.125889" stroke-dasharray="1,5" d="M232.024,-101.107C245.661,-93.0656 266.425,-79.7494 281.849,-65.0538 285.516,-61.5603 289.059,-57.4685 292.246,-53.4116"/>
<polygon fill="red" stroke="red" stroke-width="0.125889" points="295.085,-55.4586 298.213,-45.336 289.455,-51.2987 295.085,-55.4586"/>
</g>
<!-- D -->
<g id="node4" class="node"><title>D</title>
<polygon fill="lightgray" stroke="black" points="489.349,-119.054 466.349,-119.054 466.349,-101.054 489.349,-101.054 489.349,-119.054"/>
<text text-anchor="middle" x="477.849" y="-107.854" font-family="Times,serif" font-size="9.00">D</text>
</g>
<!-- fizzbuzz -->
<g id="node13" class="node"><title>fizzbuzz</title>
<ellipse fill="lightblue" stroke="black" cx="477.849" cy="-32.5269" rx="32.5538" ry="32.5538"/>
<text text-anchor="middle" x="477.849" y="-30.3269" font-family="Times,serif" font-size="9.00">fizzbuzz</text>
</g>
<!-- D&#45;&gt;fizzbuzz -->
<g id="edge12" class="edge"><title>D&#45;&gt;fizzbuzz</title>
<path fill="none" stroke="red" stroke-width="1.12854" d="M477.849,-100.971C477.849,-94.5881 477.849,-85.1488 477.849,-75.3408"/>
<polygon fill="red" stroke="red" stroke-width="1.12854" points="481.349,-75.099 477.849,-65.099 474.349,-75.099 481.349,-75.099"/>
</g>
<!-- E -->
<g id="node5" class="node"><title>E</title>
<polygon fill="lightgray" stroke="black" points="271.849,-119.054 249.849,-119.054 249.849,-101.054 271.849,-101.054 271.849,-119.054"/>
<text text-anchor="middle" x="260.849" y="-107.854" font-family="Times,serif" font-size="9.00">E</text>
</g>
<!-- E&#45;&gt;fizz -->
<g id="edge3" class="edge"><title>E&#45;&gt;fizz</title>
<path fill="none" stroke="green" stroke-width="0.387854" d="M271.971,-106.704C293.752,-101.726 342.946,-88.5963 377.849,-65.0538 381.387,-62.6678 384.795,-59.7677 387.955,-56.7038"/>
<polygon fill="green" stroke="green" stroke-width="0.387854" points="390.506,-59.0995 394.819,-49.4222 385.413,-54.2977 390.506,-59.0995"/>
</g>
<!-- 7 -->
<g id="node17" class="node"><title>7</title>
<ellipse fill="lightblue" stroke="black" cx="257.849" cy="-32.5269" rx="14.7" ry="14.7"/>
<text text-anchor="middle" x="257.849" y="-30.3269" font-family="Times,serif" font-size="9.00">7</text>
</g>
<!-- E&#45;&gt;7 -->
<g id="edge9" class="edge"><title>E&#45;&gt;7</title>
<path fill="none" stroke="green" stroke-width="1.36486" d="M260.528,-100.971C260.12,-90.6821 259.395,-72.4521 258.803,-57.5372"/>
<polygon fill="green" stroke="green" stroke-width="1.36486" points="262.295,-57.2769 258.401,-47.4237 255.301,-57.5548 262.295,-57.2769"/>
</g>
<!-- 8 -->
<g id="node18" class="node"><title>8</title>
<ellipse fill="lightblue" stroke="black" cx="209.849" cy="-32.5269" rx="14.7" ry="14.7"/>
<text text-anchor="middle" x="209.849" y="-30.3269" font-family="Times,serif" font-size="9.00">8</text>
</g>
<!-- E&#45;&gt;8 -->
<g id="edge13" class="edge"><title>E&#45;&gt;8</title>
<path fill="none" stroke="green" stroke-width="0.964242" d="M255.391,-100.971C247.83,-89.7736 233.918,-69.1706 223.452,-53.6714"/>
<polygon fill="green" stroke="green" stroke-width="0.964242" points="226.259,-51.574 217.762,-45.2451 220.458,-55.4913 226.259,-51.574"/>
</g>
<!-- F -->
<g id="node6" class="node"><title>F</title>
<polygon fill="lightgray" stroke="black" points="529.849,-119.054 507.849,-119.054 507.849,-101.054 529.849,-101.054 529.849,-119.054"/>
<text text-anchor="middle" x="518.849" y="-107.854" font-family="Times,serif" font-size="9.00">F</text>
</g>
<!-- G -->
<g id="node7" class="node"><title>G</title>
<polygon fill="lightgray" stroke="black" points="129.349,-119.054 106.349,-119.054 106.349,-101.054 129.349,-101.054 129.349,-119.054"/>
<text text-anchor="middle" x="117.849" y="-107.854" font-family="Times,serif" font-size="9.00">G</text>
</g>
<!-- G&#45;&gt;Number -->
<g id="edge10" class="edge"><title>G&#45;&gt;Number</title>
<path fill="none" stroke="green" stroke-width="2.92813" d="M120.739,-100.971C123.197,-94.0952 126.923,-83.6727 130.715,-73.0632"/>
<polygon fill="green" stroke="green" stroke-width="2.92813" points="134.112,-73.9582 134.183,-63.3636 127.521,-71.6018 134.112,-73.9582"/>
</g>
<!-- G&#45;&gt;buzz -->
<g id="edge15" class="edge"><title>G&#45;&gt;buzz</title>
<path fill="none" stroke="red" stroke-width="1.22629" d="M112.819,-100.971C106.992,-91.6062 97.0699,-75.6624 88.3361,-61.6276"/>
<polygon fill="red" stroke="red" stroke-width="1.22629" points="91.0784,-59.4098 82.8233,-52.7687 85.1352,-63.1083 91.0784,-59.4098"/>
</g>
<!-- 6 -->
<g id="node16" class="node"><title>6</title>
<ellipse fill="lightblue" stroke="black" cx="14.8492" cy="-32.5269" rx="14.7" ry="14.7"/>
<text text-anchor="middle" x="14.8492" y="-30.3269" font-family="Times,serif" font-size="9.00">6</text>
</g>
<!-- G&#45;&gt;6 -->
<g id="edge6" class="edge"><title>G&#45;&gt;6</title>
<path fill="none" stroke="green" stroke-width="0.431837" d="M106.198,-104.386C89.9102,-97.4794 59.9654,-83.3567 38.8492,-65.0538 35.0222,-61.7366 31.4113,-57.7198 28.2089,-53.6801"/>
<polygon fill="green" stroke="green" stroke-width="0.431837" points="31.0033,-51.5721 22.2705,-45.5729 25.3561,-55.7085 31.0033,-51.5721"/>
</g>
<!-- G&#45;&gt;8 -->
<g id="edge14" class="edge"><title>G&#45;&gt;8</title>
<path fill="none" stroke="green" stroke-width="1.89197" d="M129.508,-103.355C144.013,-95.8953 169.037,-81.784 186.849,-65.0538 190.332,-61.7823 193.642,-57.9203 196.609,-54.0416"/>
<polygon fill="green" stroke="green" stroke-width="1.89197" points="199.563,-55.9279 202.493,-45.7465 193.853,-51.878 199.563,-55.9279"/>
</g>
<!-- &#45;8 -->
<g id="node8" class="node"><title>&#45;8</title>
<polygon fill="lightgray" stroke="black" points="178.849,-119.054 154.849,-119.054 154.849,-101.054 178.849,-101.054 178.849,-119.054"/>
<text text-anchor="middle" x="166.849" y="-107.854" font-family="Times,serif" font-size="9.00">&#45;8</text>
</g>
<!-- &#45;8&#45;&gt;buzz -->
<g id="edge17" class="edge"><title>&#45;8&#45;&gt;buzz</title>
<path fill="none" stroke="red" stroke-width="0.976365" d="M154.601,-101.545C141.372,-93.2299 119.902,-79.1317 102.849,-65.0538 99.9098,-62.6272 96.9263,-59.978 94.0228,-57.2796"/>
<polygon fill="red" stroke="red" stroke-width="0.976365" points="96.2402,-54.556 86.6089,-50.1414 91.385,-59.5986 96.2402,-54.556"/>
</g>
<!-- &#45;8&#45;&gt;7 -->
<g id="edge4" class="edge"><title>&#45;8&#45;&gt;7</title>
<path fill="none" stroke="red" stroke-width="1.08402" d="M179.097,-102.683C193.241,-94.9661 216.753,-81.0001 233.849,-65.0538 237.553,-61.5993 241.111,-57.5242 244.302,-53.4711"/>
<polygon fill="red" stroke="red" stroke-width="1.08402" points="247.144,-55.5141 250.262,-45.3885 241.51,-51.3595 247.144,-55.5141"/>
</g>
<!-- &#45;9 -->
<g id="node9" class="node"><title>&#45;9</title>
<polygon fill="lightgray" stroke="black" points="341.849,-119.054 317.849,-119.054 317.849,-101.054 341.849,-101.054 341.849,-119.054"/>
<text text-anchor="middle" x="329.849" y="-107.854" font-family="Times,serif" font-size="9.00">&#45;9</text>
</g>
<!-- &#45;9&#45;&gt;4 -->
<g id="edge1" class="edge"><title>&#45;9&#45;&gt;4</title>
<path fill="none" stroke="green" stroke-width="1.43604" d="M332.418,-100.971C335.758,-90.4586 341.733,-71.6561 346.527,-56.5698"/>
<polygon fill="green" stroke="green" stroke-width="1.43604" points="349.917,-57.457 349.61,-46.8666 343.246,-55.337 349.917,-57.457"/>
</g>
<!-- &#45;9&#45;&gt;5 -->
<g id="edge11" class="edge"><title>&#45;9&#45;&gt;5</title>
<path fill="none" stroke="green" stroke-width="2.27909" d="M327.281,-100.971C323.94,-90.4586 317.965,-71.6561 313.172,-56.5698"/>
<polygon fill="green" stroke="green" stroke-width="2.27909" points="316.452,-55.337 310.088,-46.8666 309.781,-57.457 316.452,-55.337"/>
</g>
</g>
</svg>
