<?xml version="1.0" encoding="UTF-8" standalone="no"?>
<!DOCTYPE svg PUBLIC "-//W3C//DTD SVG 1.1//EN"
 "http://www.w3.org/Graphics/SVG/1.1/DTD/svg11.dtd">
<!-- Generated by graphviz version 2.38.0 (20140413.2041)
 -->
<!-- Title: %3 Pages: 1 -->
<svg width="618pt" height="143pt"
 viewBox="0.00 0.00 618.50 142.99" xmlns="http://www.w3.org/2000/svg" xmlns:xlink="http://www.w3.org/1999/xlink">
<g id="graph0" class="graph" transform="scale(1 1) rotate(0) translate(4 138.995)">
<title>%3</title>
<polygon fill="white" stroke="none" points="-4,4 -4,-138.995 614.497,-138.995 614.497,4 -4,4"/>
<!-- i 1,1 -->
<g id="node1" class="node"><title>i 1,1</title>
<polygon fill="lightgray" stroke="black" points="40.7487,-119.246 8.74874,-119.246 8.74874,-101.246 40.7487,-101.246 40.7487,-119.246"/>
<text text-anchor="middle" x="24.7487" y="-108.046" font-family="Times,serif" font-size="9.00">i 1,1</text>
</g>
<!-- o 1,1 -->
<g id="node10" class="node"><title>o 1,1</title>
<ellipse fill="lightblue" stroke="black" cx="24.7487" cy="-24.7487" rx="25" ry="25"/>
<text text-anchor="middle" x="24.7487" y="-22.5487" font-family="Times,serif" font-size="9.00">o 1,1</text>
</g>
<!-- i 1,1&#45;&gt;o 1,1 -->
<g id="edge2" class="edge"><title>i 1,1&#45;&gt;o 1,1</title>
<path fill="none" stroke="green" stroke-width="1.36534" d="M24.7487,-101.24C24.7487,-91.6887 24.7487,-75.0995 24.7487,-59.9004"/>
<polygon fill="green" stroke="green" stroke-width="1.36534" points="28.2488,-59.7037 24.7487,-49.7037 21.2488,-59.7038 28.2488,-59.7037"/>
</g>
<!-- i 1,2 -->
<g id="node2" class="node"><title>i 1,2</title>
<polygon fill="lightgray" stroke="black" points="107.749,-119.246 75.7487,-119.246 75.7487,-101.246 107.749,-101.246 107.749,-119.246"/>
<text text-anchor="middle" x="91.7487" y="-108.046" font-family="Times,serif" font-size="9.00">i 1,2</text>
</g>
<!-- o 1,2 -->
<g id="node11" class="node"><title>o 1,2</title>
<ellipse fill="lightblue" stroke="black" cx="91.7487" cy="-24.7487" rx="25" ry="25"/>
<text text-anchor="middle" x="91.7487" y="-22.5487" font-family="Times,serif" font-size="9.00">o 1,2</text>
</g>
<!-- i 1,2&#45;&gt;o 1,2 -->
<g id="edge1" class="edge"><title>i 1,2&#45;&gt;o 1,2</title>
<path fill="none" stroke="red" stroke-width="0.63499" d="M91.7487,-101.24C91.7487,-91.6887 91.7487,-75.0995 91.7487,-59.9004"/>
<polygon fill="red" stroke="red" stroke-width="0.63499" points="95.2488,-59.7037 91.7487,-49.7037 88.2488,-59.7038 95.2488,-59.7037"/>
</g>
<!-- i 1,3 -->
<g id="node3" class="node"><title>i 1,3</title>
<polygon fill="lightgray" stroke="black" points="174.749,-119.246 142.749,-119.246 142.749,-101.246 174.749,-101.246 174.749,-119.246"/>
<text text-anchor="middle" x="158.749" y="-108.046" font-family="Times,serif" font-size="9.00">i 1,3</text>
</g>
<!-- o 1,3 -->
<g id="node12" class="node"><title>o 1,3</title>
<ellipse fill="lightblue" stroke="black" cx="158.749" cy="-24.7487" rx="25" ry="25"/>
<text text-anchor="middle" x="158.749" y="-22.5487" font-family="Times,serif" font-size="9.00">o 1,3</text>
</g>
<!-- i 1,3&#45;&gt;o 1,3 -->
<g id="edge7" class="edge"><title>i 1,3&#45;&gt;o 1,3</title>
<path fill="none" stroke="green" stroke-width="0.571239" d="M158.749,-101.24C158.749,-91.6887 158.749,-75.0995 158.749,-59.9004"/>
<polygon fill="green" stroke="green" stroke-width="0.571239" points="162.249,-59.7037 158.749,-49.7037 155.249,-59.7038 162.249,-59.7037"/>
</g>
<!-- i 2,1 -->
<g id="node4" class="node"><title>i 2,1</title>
<polygon fill="lightgray" stroke="black" points="224.749,-119.246 192.749,-119.246 192.749,-101.246 224.749,-101.246 224.749,-119.246"/>
<text text-anchor="middle" x="208.749" y="-108.046" font-family="Times,serif" font-size="9.00">i 2,1</text>
</g>
<!-- i 2,2 -->
<g id="node5" class="node"><title>i 2,2</title>
<polygon fill="lightgray" stroke="black" points="274.749,-119.246 242.749,-119.246 242.749,-101.246 274.749,-101.246 274.749,-119.246"/>
<text text-anchor="middle" x="258.749" y="-108.046" font-family="Times,serif" font-size="9.00">i 2,2</text>
</g>
<!-- o 2,2 -->
<g id="node14" class="node"><title>o 2,2</title>
<ellipse fill="lightblue" stroke="black" cx="258.749" cy="-24.7487" rx="25" ry="25"/>
<text text-anchor="middle" x="258.749" y="-22.5487" font-family="Times,serif" font-size="9.00">o 2,2</text>
</g>
<!-- i 2,2&#45;&gt;o 2,2 -->
<g id="edge8" class="edge"><title>i 2,2&#45;&gt;o 2,2</title>
<path fill="none" stroke="red" stroke-width="0.48605" d="M258.749,-101.24C258.749,-91.6887 258.749,-75.0995 258.749,-59.9004"/>
<polygon fill="red" stroke="red" stroke-width="0.48605" points="262.249,-59.7037 258.749,-49.7037 255.249,-59.7038 262.249,-59.7037"/>
</g>
<!-- i 2,3 -->
<g id="node6" class="node"><title>i 2,3</title>
<polygon fill="lightgray" stroke="black" points="341.749,-119.246 309.749,-119.246 309.749,-101.246 341.749,-101.246 341.749,-119.246"/>
<text text-anchor="middle" x="325.749" y="-108.046" font-family="Times,serif" font-size="9.00">i 2,3</text>
</g>
<!-- o 2,3 -->
<g id="node15" class="node"><title>o 2,3</title>
<ellipse fill="lightblue" stroke="black" cx="325.749" cy="-24.7487" rx="25" ry="25"/>
<text text-anchor="middle" x="325.749" y="-22.5487" font-family="Times,serif" font-size="9.00">o 2,3</text>
</g>
<!-- i 2,3&#45;&gt;o 2,3 -->
<g id="edge6" class="edge"><title>i 2,3&#45;&gt;o 2,3</title>
<path fill="none" stroke="red" stroke-width="0.523024" d="M325.749,-101.24C325.749,-91.6887 325.749,-75.0995 325.749,-59.9004"/>
<polygon fill="red" stroke="red" stroke-width="0.523024" points="329.249,-59.7037 325.749,-49.7037 322.249,-59.7038 329.249,-59.7037"/>
</g>
<!-- i 3,1 -->
<g id="node7" class="node"><title>i 3,1</title>
<polygon fill="lightgray" stroke="black" points="408.749,-119.246 376.749,-119.246 376.749,-101.246 408.749,-101.246 408.749,-119.246"/>
<text text-anchor="middle" x="392.749" y="-108.046" font-family="Times,serif" font-size="9.00">i 3,1</text>
</g>
<!-- o 3,1 -->
<g id="node16" class="node"><title>o 3,1</title>
<ellipse fill="lightblue" stroke="black" cx="392.749" cy="-24.7487" rx="25" ry="25"/>
<text text-anchor="middle" x="392.749" y="-22.5487" font-family="Times,serif" font-size="9.00">o 3,1</text>
</g>
<!-- i 3,1&#45;&gt;o 3,1 -->
<g id="edge5" class="edge"><title>i 3,1&#45;&gt;o 3,1</title>
<path fill="none" stroke="red" stroke-width="0.505847" d="M392.749,-101.24C392.749,-91.6887 392.749,-75.0995 392.749,-59.9004"/>
<polygon fill="red" stroke="red" stroke-width="0.505847" points="396.249,-59.7037 392.749,-49.7037 389.249,-59.7038 396.249,-59.7037"/>
</g>
<!-- i 3,2 -->
<g id="node8" class="node"><title>i 3,2</title>
<polygon fill="lightgray" stroke="black" points="475.749,-119.246 443.749,-119.246 443.749,-101.246 475.749,-101.246 475.749,-119.246"/>
<text text-anchor="middle" x="459.749" y="-108.046" font-family="Times,serif" font-size="9.00">i 3,2</text>
</g>
<!-- o 3,2 -->
<g id="node17" class="node"><title>o 3,2</title>
<ellipse fill="lightblue" stroke="black" cx="459.749" cy="-24.7487" rx="25" ry="25"/>
<text text-anchor="middle" x="459.749" y="-22.5487" font-family="Times,serif" font-size="9.00">o 3,2</text>
</g>
<!-- i 3,2&#45;&gt;o 3,2 -->
<g id="edge3" class="edge"><title>i 3,2&#45;&gt;o 3,2</title>
<path fill="none" stroke="green" stroke-width="0.25767" d="M459.749,-101.24C459.749,-91.6887 459.749,-75.0995 459.749,-59.9004"/>
<polygon fill="green" stroke="green" stroke-width="0.25767" points="463.249,-59.7037 459.749,-49.7037 456.249,-59.7038 463.249,-59.7037"/>
</g>
<!-- i 3,3 -->
<g id="node9" class="node"><title>i 3,3</title>
<polygon fill="lightgray" stroke="black" points="542.749,-119.246 510.749,-119.246 510.749,-101.246 542.749,-101.246 542.749,-119.246"/>
<text text-anchor="middle" x="526.749" y="-108.046" font-family="Times,serif" font-size="9.00">i 3,3</text>
</g>
<!-- o 3,3 -->
<g id="node18" class="node"><title>o 3,3</title>
<ellipse fill="lightblue" stroke="black" cx="526.749" cy="-24.7487" rx="25" ry="25"/>
<text text-anchor="middle" x="526.749" y="-22.5487" font-family="Times,serif" font-size="9.00">o 3,3</text>
</g>
<!-- i 3,3&#45;&gt;o 3,3 -->
<g id="edge4" class="edge"><title>i 3,3&#45;&gt;o 3,3</title>
<path fill="none" stroke="green" stroke-width="0.431645" d="M526.749,-101.24C526.749,-91.6887 526.749,-75.0995 526.749,-59.9004"/>
<polygon fill="green" stroke="green" stroke-width="0.431645" points="530.249,-59.7037 526.749,-49.7037 523.249,-59.7038 530.249,-59.7037"/>
</g>
<!-- o 2,1 -->
<g id="node13" class="node"><title>o 2,1</title>
<ellipse fill="lightblue" stroke="black" cx="585.749" cy="-110.246" rx="25" ry="25"/>
<text text-anchor="middle" x="585.749" y="-108.046" font-family="Times,serif" font-size="9.00">o 2,1</text>
</g>
</g>
</svg>
