<?xml version="1.0" encoding="UTF-8" standalone="no"?>
<!DOCTYPE svg PUBLIC "-//W3C//DTD SVG 1.1//EN"
 "http://www.w3.org/Graphics/SVG/1.1/DTD/svg11.dtd">
<!-- Generated by graphviz version 2.38.0 (20140413.2041)
 -->
<!-- Title: %3 Pages: 1 -->
<svg width="534pt" height="127pt"
 viewBox="0.00 0.00 533.53 127.05" xmlns="http://www.w3.org/2000/svg" xmlns:xlink="http://www.w3.org/1999/xlink">
<g id="graph0" class="graph" transform="scale(1 1) rotate(0) translate(4 123.054)">
<title>%3</title>
<polygon fill="white" stroke="none" points="-4,4 -4,-123.054 529.527,-123.054 529.527,4 -4,4"/>
<!-- 1,1 -->
<g id="node1" class="node"><title>1,1</title>
<polygon fill="lightgray" stroke="black" points="46.5269,-119.054 18.5269,-119.054 18.5269,-101.054 46.5269,-101.054 46.5269,-119.054"/>
<text text-anchor="middle" x="32.5269" y="-107.854" font-family="Times,serif" font-size="9.00">1,1</text>
</g>
<!-- Number -->
<g id="node10" class="node"><title>Number</title>
<ellipse fill="lightblue" stroke="black" cx="32.5269" cy="-32.5269" rx="32.5538" ry="32.5538"/>
<text text-anchor="middle" x="32.5269" y="-30.3269" font-family="Times,serif" font-size="9.00">Number</text>
</g>
<!-- 1,1&#45;&gt;Number -->
<g id="edge4" class="edge"><title>1,1&#45;&gt;Number</title>
<path fill="none" stroke="red" stroke-width="2.91538" d="M32.5269,-100.971C32.5269,-94.5881 32.5269,-85.1488 32.5269,-75.3408"/>
<polygon fill="red" stroke="red" stroke-width="2.91538" points="36.027,-75.099 32.5269,-65.099 29.027,-75.099 36.027,-75.099"/>
</g>
<!-- 1,2 -->
<g id="node2" class="node"><title>1,2</title>
<polygon fill="lightgray" stroke="black" points="287.527,-119.054 259.527,-119.054 259.527,-101.054 287.527,-101.054 287.527,-119.054"/>
<text text-anchor="middle" x="273.527" y="-107.854" font-family="Times,serif" font-size="9.00">1,2</text>
</g>
<!-- fizz -->
<g id="node11" class="node"><title>fizz</title>
<ellipse fill="lightblue" stroke="black" cx="150.527" cy="-32.5269" rx="20.5122" ry="20.5122"/>
<text text-anchor="middle" x="150.527" y="-30.3269" font-family="Times,serif" font-size="9.00">fizz</text>
</g>
<!-- 1,2&#45;&gt;fizz -->
<g id="edge1" class="edge"><title>1,2&#45;&gt;fizz</title>
<path fill="none" stroke="red" stroke-width="1.14481" d="M259.219,-104.341C239.944,-97.5673 205.106,-83.8003 179.527,-65.0538 176.085,-62.5315 172.73,-59.5562 169.594,-56.4577"/>
<polygon fill="red" stroke="red" stroke-width="1.14481" points="172.138,-54.0538 162.742,-49.1592 167.035,-58.8452 172.138,-54.0538"/>
</g>
<!-- fizzbuzz -->
<g id="node13" class="node"><title>fizzbuzz</title>
<ellipse fill="lightblue" stroke="black" cx="221.527" cy="-32.5269" rx="32.5538" ry="32.5538"/>
<text text-anchor="middle" x="221.527" y="-30.3269" font-family="Times,serif" font-size="9.00">fizzbuzz</text>
</g>
<!-- 1,2&#45;&gt;fizzbuzz -->
<g id="edge6" class="edge"><title>1,2&#45;&gt;fizzbuzz</title>
<path fill="none" stroke="red" stroke-width="0.817407" d="M267.962,-100.971C262.512,-93.0558 253.827,-80.4407 245.434,-68.2508"/>
<polygon fill="red" stroke="red" stroke-width="0.817407" points="248.268,-66.1943 239.714,-59.9426 242.502,-70.164 248.268,-66.1943"/>
</g>
<!-- 7 -->
<g id="node17" class="node"><title>7</title>
<ellipse fill="lightblue" stroke="black" cx="430.527" cy="-32.5269" rx="14.7" ry="14.7"/>
<text text-anchor="middle" x="430.527" y="-30.3269" font-family="Times,serif" font-size="9.00">7</text>
</g>
<!-- 1,2&#45;&gt;7 -->
<g id="edge19" class="edge"><title>1,2&#45;&gt;7</title>
<path fill="none" stroke="red" stroke-width="1.51365" d="M287.896,-105.455C318.085,-97.7125 386.928,-79.0402 406.527,-65.0538 410.716,-62.0644 414.506,-58.1298 417.773,-54.0577"/>
<polygon fill="red" stroke="red" stroke-width="1.51365" points="420.734,-55.9348 423.704,-45.7648 415.04,-51.8629 420.734,-55.9348"/>
</g>
<!-- 8 -->
<g id="node18" class="node"><title>8</title>
<ellipse fill="lightblue" stroke="black" cx="286.527" cy="-32.5269" rx="14.7" ry="14.7"/>
<text text-anchor="middle" x="286.527" y="-30.3269" font-family="Times,serif" font-size="9.00">8</text>
</g>
<!-- 1,2&#45;&gt;8 -->
<g id="edge10" class="edge"><title>1,2&#45;&gt;8</title>
<path fill="none" stroke="red" stroke-width="0.763295" d="M274.918,-100.971C276.689,-90.6821 279.827,-72.4521 282.394,-57.5372"/>
<polygon fill="red" stroke="red" stroke-width="0.763295" points="285.888,-57.8725 284.135,-47.4237 278.989,-56.685 285.888,-57.8725"/>
</g>
<!-- 1,3 -->
<g id="node3" class="node"><title>1,3</title>
<polygon fill="lightgray" stroke="black" points="485.527,-119.054 457.527,-119.054 457.527,-101.054 485.527,-101.054 485.527,-119.054"/>
<text text-anchor="middle" x="471.527" y="-107.854" font-family="Times,serif" font-size="9.00">1,3</text>
</g>
<!-- buzz -->
<g id="node12" class="node"><title>buzz</title>
<ellipse fill="lightblue" stroke="black" cx="486.527" cy="-32.5269" rx="23.1702" ry="23.1702"/>
<text text-anchor="middle" x="486.527" y="-30.3269" font-family="Times,serif" font-size="9.00">buzz</text>
</g>
<!-- 1,3&#45;&gt;buzz -->
<g id="edge14" class="edge"><title>1,3&#45;&gt;buzz</title>
<path fill="none" stroke="red" stroke-width="0.515938" d="M473.132,-100.971C474.814,-92.5034 477.564,-78.6571 480.136,-65.7067"/>
<polygon fill="red" stroke="red" stroke-width="0.515938" points="483.621,-66.1229 482.137,-55.6326 476.756,-64.7592 483.621,-66.1229"/>
</g>
<!-- 5 -->
<g id="node15" class="node"><title>5</title>
<ellipse fill="lightblue" stroke="black" cx="382.527" cy="-32.5269" rx="14.7" ry="14.7"/>
<text text-anchor="middle" x="382.527" y="-30.3269" font-family="Times,serif" font-size="9.00">5</text>
</g>
<!-- 1,3&#45;&gt;5 -->
<g id="edge8" class="edge"><title>1,3&#45;&gt;5</title>
<path fill="none" stroke="green" stroke-width="1.4769" d="M457.382,-101.303C443.53,-93.3104 422.268,-79.943 406.527,-65.0538 402.848,-61.5735 399.299,-57.4874 396.111,-53.4318"/>
<polygon fill="green" stroke="green" stroke-width="1.4769" points="398.902,-51.3193 390.147,-45.3538 393.271,-55.4775 398.902,-51.3193"/>
</g>
<!-- 1,3&#45;&gt;7 -->
<g id="edge15" class="edge"><title>1,3&#45;&gt;7</title>
<path fill="none" stroke="red" stroke-width="0.950439" d="M467.139,-100.971C461.22,-90.0673 450.459,-70.2451 442.13,-54.9014"/>
<polygon fill="red" stroke="red" stroke-width="0.950439" points="445.17,-53.165 437.323,-46.0463 439.018,-56.5047 445.17,-53.165"/>
</g>
<!-- D -->
<g id="node4" class="node"><title>D</title>
<polygon fill="lightgray" stroke="black" points="439.027,-119.054 416.027,-119.054 416.027,-101.054 439.027,-101.054 439.027,-119.054"/>
<text text-anchor="middle" x="427.527" y="-107.854" font-family="Times,serif" font-size="9.00">D</text>
</g>
<!-- D&#45;&gt;7 -->
<g id="edge18" class="edge"><title>D&#45;&gt;7</title>
<path fill="none" stroke="green" stroke-width="1.07598" d="M427.848,-100.971C428.257,-90.6821 428.981,-72.4521 429.573,-57.5372"/>
<polygon fill="green" stroke="green" stroke-width="1.07598" points="433.075,-57.5548 429.975,-47.4237 426.081,-57.2769 433.075,-57.5548"/>
</g>
<!-- E -->
<g id="node5" class="node"><title>E</title>
<polygon fill="lightgray" stroke="black" points="161.527,-119.054 139.527,-119.054 139.527,-101.054 161.527,-101.054 161.527,-119.054"/>
<text text-anchor="middle" x="150.527" y="-107.854" font-family="Times,serif" font-size="9.00">E</text>
</g>
<!-- E&#45;&gt;fizz -->
<g id="edge2" class="edge"><title>E&#45;&gt;fizz</title>
<path fill="none" stroke="green" stroke-width="2.06501" d="M150.527,-100.971C150.527,-91.9344 150.527,-76.7719 150.527,-63.1099"/>
<polygon fill="green" stroke="green" stroke-width="2.06501" points="154.027,-63.0813 150.527,-53.0813 147.027,-63.0814 154.027,-63.0813"/>
</g>
<!-- E&#45;&gt;fizzbuzz -->
<g id="edge20" class="edge"><title>E&#45;&gt;fizzbuzz</title>
<path fill="none" stroke="green" stroke-width="3.19177" d="M158.125,-100.971C166.319,-92.2549 179.87,-77.8397 192.346,-64.5688"/>
<polygon fill="green" stroke="green" stroke-width="3.19177" points="195.219,-66.6225 199.518,-56.9391 190.118,-61.8279 195.219,-66.6225"/>
</g>
<!-- 6 -->
<g id="node16" class="node"><title>6</title>
<ellipse fill="lightblue" stroke="black" cx="97.5269" cy="-32.5269" rx="14.7" ry="14.7"/>
<text text-anchor="middle" x="97.5269" y="-30.3269" font-family="Times,serif" font-size="9.00">6</text>
</g>
<!-- E&#45;&gt;6 -->
<g id="edge11" class="edge"><title>E&#45;&gt;6</title>
<path fill="none" stroke="red" stroke-width="0.309728" d="M144.855,-100.971C136.997,-89.7736 122.539,-69.1706 111.663,-53.6714"/>
<polygon fill="red" stroke="red" stroke-width="0.309728" points="114.359,-51.4203 105.75,-45.2451 108.629,-55.4412 114.359,-51.4203"/>
</g>
<!-- F -->
<g id="node6" class="node"><title>F</title>
<polygon fill="lightgray" stroke="black" points="525.527,-119.054 503.527,-119.054 503.527,-101.054 525.527,-101.054 525.527,-119.054"/>
<text text-anchor="middle" x="514.527" y="-107.854" font-family="Times,serif" font-size="9.00">F</text>
</g>
<!-- G -->
<g id="node7" class="node"><title>G</title>
<polygon fill="lightgray" stroke="black" points="346.027,-119.054 323.027,-119.054 323.027,-101.054 346.027,-101.054 346.027,-119.054"/>
<text text-anchor="middle" x="334.527" y="-107.854" font-family="Times,serif" font-size="9.00">G</text>
</g>
<!-- 4 -->
<g id="node14" class="node"><title>4</title>
<ellipse fill="lightblue" stroke="black" cx="334.527" cy="-32.5269" rx="14.7" ry="14.7"/>
<text text-anchor="middle" x="334.527" y="-30.3269" font-family="Times,serif" font-size="9.00">4</text>
</g>
<!-- G&#45;&gt;4 -->
<g id="edge16" class="edge"><title>G&#45;&gt;4</title>
<path fill="none" stroke="red" stroke-width="0.465034" d="M334.527,-100.971C334.527,-90.6821 334.527,-72.4521 334.527,-57.5372"/>
<polygon fill="red" stroke="red" stroke-width="0.465034" points="338.027,-57.4237 334.527,-47.4237 331.027,-57.4237 338.027,-57.4237"/>
</g>
<!-- G&#45;&gt;5 -->
<g id="edge7" class="edge"><title>G&#45;&gt;5</title>
<path fill="none" stroke="green" stroke-width="0.945075" d="M339.664,-100.971C346.674,-89.9413 359.483,-69.7856 369.28,-54.3711"/>
<polygon fill="green" stroke="green" stroke-width="0.945075" points="372.501,-55.8272 374.911,-45.51 366.593,-52.0725 372.501,-55.8272"/>
</g>
<!-- G&#45;&gt;8 -->
<g id="edge3" class="edge"><title>G&#45;&gt;8</title>
<path fill="none" stroke="green" stroke-width="1.23274" d="M329.39,-100.971C322.38,-89.9413 309.571,-69.7856 299.774,-54.3711"/>
<polygon fill="green" stroke="green" stroke-width="1.23274" points="302.46,-52.0725 294.143,-45.51 296.552,-55.8272 302.46,-52.0725"/>
</g>
<!-- &#45;8 -->
<g id="node8" class="node"><title>&#45;8</title>
<polygon fill="lightgray" stroke="black" points="391.527,-119.054 367.527,-119.054 367.527,-101.054 391.527,-101.054 391.527,-119.054"/>
<text text-anchor="middle" x="379.527" y="-107.854" font-family="Times,serif" font-size="9.00">&#45;8</text>
</g>
<!-- &#45;8&#45;&gt;4 -->
<g id="edge12" class="edge"><title>&#45;8&#45;&gt;4</title>
<path fill="none" stroke="red" stroke-width="2.66756" d="M374.711,-100.971C368.177,-90.0043 356.267,-70.0156 347.104,-54.6358"/>
<polygon fill="red" stroke="red" stroke-width="2.66756" points="349.951,-52.5764 341.826,-45.7771 343.938,-56.1593 349.951,-52.5764"/>
</g>
<!-- &#45;8&#45;&gt;5 -->
<g id="edge9" class="edge"><title>&#45;8&#45;&gt;5</title>
<path fill="none" stroke="green" stroke-width="0.155498" stroke-dasharray="1,5" d="M379.848,-100.971C380.257,-90.6821 380.981,-72.4521 381.573,-57.5372"/>
<polygon fill="green" stroke="green" stroke-width="0.155498" points="385.075,-57.5548 381.975,-47.4237 378.081,-57.2769 385.075,-57.5548"/>
</g>
<!-- &#45;8&#45;&gt;7 -->
<g id="edge5" class="edge"><title>&#45;8&#45;&gt;7</title>
<path fill="none" stroke="red" stroke-width="0.198635" stroke-dasharray="1,5" d="M384.985,-100.971C392.546,-89.7736 406.458,-69.1706 416.924,-53.6714"/>
<polygon fill="red" stroke="red" stroke-width="0.198635" points="419.919,-55.4913 422.614,-45.2451 414.117,-51.574 419.919,-55.4913"/>
</g>
<!-- &#45;8&#45;&gt;8 -->
<g id="edge13" class="edge"><title>&#45;8&#45;&gt;8</title>
<path fill="none" stroke="red" stroke-width="0.879937" d="M367.415,-103.031C352.895,-95.4456 328.299,-81.4091 310.527,-65.0538 306.8,-61.6243 303.232,-57.5597 300.039,-53.5091"/>
<polygon fill="red" stroke="red" stroke-width="0.879937" points="302.832,-51.3982 294.083,-45.422 297.195,-55.5494 302.832,-51.3982"/>
</g>
<!-- &#45;9 -->
<g id="node9" class="node"><title>&#45;9</title>
<polygon fill="lightgray" stroke="black" points="216.527,-119.054 192.527,-119.054 192.527,-101.054 216.527,-101.054 216.527,-119.054"/>
<text text-anchor="middle" x="204.527" y="-107.854" font-family="Times,serif" font-size="9.00">&#45;9</text>
</g>
<!-- &#45;9&#45;&gt;fizz -->
<g id="edge17" class="edge"><title>&#45;9&#45;&gt;fizz</title>
<path fill="none" stroke="red" stroke-width="0.319173" d="M198.748,-100.971C191.47,-90.7916 178.634,-72.8389 168.035,-58.0141"/>
<polygon fill="red" stroke="red" stroke-width="0.319173" points="170.775,-55.8284 162.111,-49.7293 165.08,-59.8997 170.775,-55.8284"/>
</g>
<!-- &#45;9&#45;&gt;8 -->
<g id="edge21" class="edge"><title>&#45;9&#45;&gt;8</title>
<path fill="none" stroke="green" stroke-width="0.229081" stroke-dasharray="1,5" d="M216.66,-101.565C229.208,-93.4792 248.967,-79.7677 263.527,-65.0538 266.888,-61.6571 270.143,-57.739 273.095,-53.8445"/>
<polygon fill="green" stroke="green" stroke-width="0.229081" points="276.041,-55.7424 278.998,-45.5686 270.342,-51.6777 276.041,-55.7424"/>
</g>
</g>
</svg>
