<?xml version="1.0" encoding="UTF-8" standalone="no"?>
<!DOCTYPE svg PUBLIC "-//W3C//DTD SVG 1.1//EN"
 "http://www.w3.org/Graphics/SVG/1.1/DTD/svg11.dtd">
<!-- Generated by graphviz version 2.38.0 (20140413.2041)
 -->
<!-- Title: %3 Pages: 1 -->
<svg width="683pt" height="204pt"
 viewBox="0.00 0.00 682.85 204.45" xmlns="http://www.w3.org/2000/svg" xmlns:xlink="http://www.w3.org/1999/xlink">
<g id="graph0" class="graph" transform="scale(1 1) rotate(0) translate(4 200.451)">
<title>%3</title>
<polygon fill="white" stroke="none" points="-4,4 -4,-200.451 678.849,-200.451 678.849,4 -4,4"/>
<!-- 1,1 -->
<g id="node1" class="node"><title>1,1</title>
<polygon fill="lightgray" stroke="black" points="28,-190.602 0,-190.602 0,-172.602 28,-172.602 28,-190.602"/>
<text text-anchor="middle" x="14" y="-179.402" font-family="Times,serif" font-size="9.00">1,1</text>
</g>
<!-- 1,2 -->
<g id="node2" class="node"><title>1,2</title>
<polygon fill="lightgray" stroke="black" points="74,-190.602 46,-190.602 46,-172.602 74,-172.602 74,-190.602"/>
<text text-anchor="middle" x="60" y="-179.402" font-family="Times,serif" font-size="9.00">1,2</text>
</g>
<!-- 8 -->
<g id="node18" class="node"><title>8</title>
<ellipse fill="lightblue" stroke="black" cx="98" cy="-98.2254" rx="14.7" ry="14.7"/>
<text text-anchor="middle" x="98" y="-96.0254" font-family="Times,serif" font-size="9.00">8</text>
</g>
<!-- 1,2&#45;&gt;8 -->
<g id="edge6" class="edge"><title>1,2&#45;&gt;8</title>
<path fill="none" stroke="green" stroke-width="1.2716" d="M63.7825,-172.501C69.3064,-160.672 79.7827,-138.237 87.6945,-121.294"/>
<polygon fill="green" stroke="green" stroke-width="1.2716" points="90.9399,-122.616 91.9998,-112.075 84.5973,-119.655 90.9399,-122.616"/>
</g>
<!-- 1,3 -->
<g id="node3" class="node"><title>1,3</title>
<polygon fill="lightgray" stroke="black" points="242,-190.602 214,-190.602 214,-172.602 242,-172.602 242,-190.602"/>
<text text-anchor="middle" x="228" y="-179.402" font-family="Times,serif" font-size="9.00">1,3</text>
</g>
<!-- 7 -->
<g id="node17" class="node"><title>7</title>
<ellipse fill="lightblue" stroke="black" cx="228" cy="-98.2254" rx="14.7" ry="14.7"/>
<text text-anchor="middle" x="228" y="-96.0254" font-family="Times,serif" font-size="9.00">7</text>
</g>
<!-- 1,3&#45;&gt;7 -->
<g id="edge1" class="edge"><title>1,3&#45;&gt;7</title>
<path fill="none" stroke="red" stroke-width="0.250792" d="M228,-172.501C228,-161.157 228,-140.059 228,-123.405"/>
<polygon fill="red" stroke="red" stroke-width="0.250792" points="231.5,-123.249 228,-113.249 224.5,-123.249 231.5,-123.249"/>
</g>
<!-- D -->
<g id="node4" class="node"><title>D</title>
<polygon fill="lightgray" stroke="black" points="168.5,-190.602 145.5,-190.602 145.5,-172.602 168.5,-172.602 168.5,-190.602"/>
<text text-anchor="middle" x="157" y="-179.402" font-family="Times,serif" font-size="9.00">D</text>
</g>
<!-- Number -->
<g id="node10" class="node"><title>Number</title>
<ellipse fill="lightblue" stroke="black" cx="163" cy="-98.2254" rx="32.5538" ry="32.5538"/>
<text text-anchor="middle" x="163" y="-96.0254" font-family="Times,serif" font-size="9.00">Number</text>
</g>
<!-- D&#45;&gt;Number -->
<g id="edge10" class="edge"><title>D&#45;&gt;Number</title>
<path fill="none" stroke="red" stroke-width="1.15347" d="M157.597,-172.501C158.158,-164.901 159.041,-152.922 159.932,-140.835"/>
<polygon fill="red" stroke="red" stroke-width="1.15347" points="163.431,-140.98 160.676,-130.749 156.45,-140.465 163.431,-140.98"/>
</g>
<!-- D&#45;&gt;8 -->
<g id="edge12" class="edge"><title>D&#45;&gt;8</title>
<path fill="none" stroke="red" stroke-width="0.20512" d="M151.127,-172.501C142.142,-160.109 124.718,-136.076 112.274,-118.912"/>
<polygon fill="red" stroke="red" stroke-width="0.20512" points="114.995,-116.703 106.291,-110.661 109.327,-120.811 114.995,-116.703"/>
</g>
<!-- E -->
<g id="node5" class="node"><title>E</title>
<polygon fill="lightgray" stroke="black" points="308,-190.602 286,-190.602 286,-172.602 308,-172.602 308,-190.602"/>
<text text-anchor="middle" x="297" y="-179.402" font-family="Times,serif" font-size="9.00">E</text>
</g>
<!-- 5 -->
<g id="node15" class="node"><title>5</title>
<ellipse fill="lightblue" stroke="black" cx="337" cy="-14.8492" rx="14.7" ry="14.7"/>
<text text-anchor="middle" x="337" y="-12.6492" font-family="Times,serif" font-size="9.00">5</text>
</g>
<!-- E&#45;&gt;5 -->
<g id="edge4" class="edge"><title>E&#45;&gt;5</title>
<path fill="none" stroke="red" stroke-width="0.272483" d="M295.967,-172.524C293.823,-153.369 290.101,-103.932 303,-65.6985 306.818,-54.3827 313.977,-43.2598 320.746,-34.4019"/>
<polygon fill="red" stroke="red" stroke-width="0.272483" points="323.672,-36.3499 327.245,-26.3758 318.232,-31.9445 323.672,-36.3499"/>
</g>
<!-- 8235 -->
<g id="node19" class="node"><title>8235</title>
<ellipse fill="white" stroke="black" cx="337" cy="-98.2254" rx="25" ry="25"/>
<text text-anchor="middle" x="337" y="-96.0254" font-family="Times,serif" font-size="9.00">8235</text>
</g>
<!-- E&#45;&gt;8235 -->
<g id="edge13" class="edge"><title>E&#45;&gt;8235</title>
<path fill="none" stroke="red" stroke-width="0.324707" d="M300.982,-172.501C305.858,-162.58 314.402,-145.2 321.944,-129.855"/>
<polygon fill="red" stroke="red" stroke-width="0.324707" points="325.199,-131.168 326.469,-120.649 318.917,-128.08 325.199,-131.168"/>
</g>
<!-- F -->
<g id="node6" class="node"><title>F</title>
<polygon fill="lightgray" stroke="black" points="493,-190.602 471,-190.602 471,-172.602 493,-172.602 493,-190.602"/>
<text text-anchor="middle" x="482" y="-179.402" font-family="Times,serif" font-size="9.00">F</text>
</g>
<!-- buzz -->
<g id="node12" class="node"><title>buzz</title>
<ellipse fill="lightblue" stroke="black" cx="445" cy="-98.2254" rx="23.1702" ry="23.1702"/>
<text text-anchor="middle" x="445" y="-96.0254" font-family="Times,serif" font-size="9.00">buzz</text>
</g>
<!-- F&#45;&gt;buzz -->
<g id="edge7" class="edge"><title>F&#45;&gt;buzz</title>
<path fill="none" stroke="red" stroke-width="0.653214" d="M478.317,-172.501C473.746,-162.447 465.691,-144.732 458.646,-129.239"/>
<polygon fill="red" stroke="red" stroke-width="0.653214" points="461.756,-127.622 454.431,-119.967 455.384,-130.519 461.756,-127.622"/>
</g>
<!-- fizzbuzz -->
<g id="node13" class="node"><title>fizzbuzz</title>
<ellipse fill="lightblue" stroke="black" cx="519" cy="-98.2254" rx="32.5538" ry="32.5538"/>
<text text-anchor="middle" x="519" y="-96.0254" font-family="Times,serif" font-size="9.00">fizzbuzz</text>
</g>
<!-- F&#45;&gt;fizzbuzz -->
<g id="edge9" class="edge"><title>F&#45;&gt;fizzbuzz</title>
<path fill="none" stroke="green" stroke-width="0.353935" d="M485.683,-172.501C489.448,-164.22 495.577,-150.74 501.558,-137.586"/>
<polygon fill="green" stroke="green" stroke-width="0.353935" points="504.898,-138.697 505.851,-128.145 498.526,-135.799 504.898,-138.697"/>
</g>
<!-- G -->
<g id="node7" class="node"><title>G</title>
<polygon fill="lightgray" stroke="black" points="627.5,-190.602 604.5,-190.602 604.5,-172.602 627.5,-172.602 627.5,-190.602"/>
<text text-anchor="middle" x="616" y="-179.402" font-family="Times,serif" font-size="9.00">G</text>
</g>
<!-- fizz -->
<g id="node11" class="node"><title>fizz</title>
<ellipse fill="lightblue" stroke="black" cx="590" cy="-98.2254" rx="20.5122" ry="20.5122"/>
<text text-anchor="middle" x="590" y="-96.0254" font-family="Times,serif" font-size="9.00">fizz</text>
</g>
<!-- G&#45;&gt;fizz -->
<g id="edge8" class="edge"><title>G&#45;&gt;fizz</title>
<path fill="none" stroke="green" stroke-width="1.30324" d="M613.412,-172.501C610.103,-162.146 604.199,-143.665 599.147,-127.854"/>
<polygon fill="green" stroke="green" stroke-width="1.30324" points="602.364,-126.422 595.986,-117.962 595.696,-128.553 602.364,-126.422"/>
</g>
<!-- 6 -->
<g id="node16" class="node"><title>6</title>
<ellipse fill="lightblue" stroke="black" cx="643" cy="-98.2254" rx="14.7" ry="14.7"/>
<text text-anchor="middle" x="643" y="-96.0254" font-family="Times,serif" font-size="9.00">6</text>
</g>
<!-- G&#45;&gt;6 -->
<g id="edge11" class="edge"><title>G&#45;&gt;6</title>
<path fill="none" stroke="red" stroke-width="2.17883" d="M618.688,-172.501C622.532,-160.916 629.751,-139.157 635.328,-122.348"/>
<polygon fill="red" stroke="red" stroke-width="2.17883" points="638.716,-123.251 638.543,-112.657 632.072,-121.046 638.716,-123.251"/>
</g>
<!-- &#45;8 -->
<g id="node8" class="node"><title>&#45;8</title>
<polygon fill="lightgray" stroke="black" points="404,-107.225 380,-107.225 380,-89.2254 404,-89.2254 404,-107.225"/>
<text text-anchor="middle" x="392" y="-96.0254" font-family="Times,serif" font-size="9.00">&#45;8</text>
</g>
<!-- &#45;8&#45;&gt;5 -->
<g id="edge5" class="edge"><title>&#45;8&#45;&gt;5</title>
<path fill="none" stroke="green" stroke-width="0.755652" d="M386.673,-89.1752C382.442,-82.795 376.367,-73.6604 371,-65.6985 364.413,-55.926 357.049,-45.1158 350.864,-36.0672"/>
<polygon fill="green" stroke="green" stroke-width="0.755652" points="353.68,-33.9846 345.143,-27.7094 347.903,-37.9384 353.68,-33.9846"/>
</g>
<!-- &#45;9 -->
<g id="node9" class="node"><title>&#45;9</title>
<polygon fill="lightgray" stroke="black" points="116,-190.602 92,-190.602 92,-172.602 116,-172.602 116,-190.602"/>
<text text-anchor="middle" x="104" y="-179.402" font-family="Times,serif" font-size="9.00">&#45;9</text>
</g>
<!-- &#45;9&#45;&gt;8 -->
<g id="edge3" class="edge"><title>&#45;9&#45;&gt;8</title>
<path fill="none" stroke="green" stroke-width="0.517335" d="M103.403,-172.501C102.566,-161.157 101.011,-140.059 99.7828,-123.405"/>
<polygon fill="green" stroke="green" stroke-width="0.517335" points="103.26,-122.965 99.034,-113.249 96.2789,-123.48 103.26,-122.965"/>
</g>
<!-- 4 -->
<g id="node14" class="node"><title>4</title>
<ellipse fill="lightblue" stroke="black" cx="660" cy="-181.602" rx="14.7" ry="14.7"/>
<text text-anchor="middle" x="660" y="-179.402" font-family="Times,serif" font-size="9.00">4</text>
</g>
<!-- 8235&#45;&gt;5 -->
<g id="edge2" class="edge"><title>8235&#45;&gt;5</title>
<path fill="none" stroke="red" stroke-width="0.662222" d="M337,-73.25C337,-62.8113 337,-50.5962 337,-40.1239"/>
<polygon fill="red" stroke="red" stroke-width="0.662222" points="340.5,-39.989 337,-29.989 333.5,-39.9891 340.5,-39.989"/>
</g>
</g>
</svg>
